<mxfile host="65bd71144e">
    <diagram id="0ukkuAWkygxVN3lw5QJ1" name="Page-1">
        <mxGraphModel dx="1086" dy="751" grid="1" gridSize="10" guides="1" tooltips="1" connect="1" arrows="1" fold="1" page="1" pageScale="1" pageWidth="850" pageHeight="1100" math="0" shadow="0">
            <root>
                <mxCell id="0"/>
                <mxCell id="1" parent="0"/>
                <mxCell id="2" value="Assignment #5" style="swimlane;" vertex="1" parent="1">
                    <mxGeometry x="130" y="170" width="590" height="350" as="geometry"/>
                </mxCell>
                <mxCell id="3" value="&lt;font style=&quot;font-size: 15px;&quot;&gt;Enter a term and get the first 5 terms in a geometric sequence&lt;/font&gt;" style="text;strokeColor=none;fillColor=none;html=1;fontSize=24;fontStyle=1;verticalAlign=middle;align=center;" vertex="1" parent="2">
                    <mxGeometry x="180" y="20" width="100" height="40" as="geometry"/>
                </mxCell>
                <mxCell id="5" value="Text box" style="rounded=0;whiteSpace=wrap;html=1;fontSize=15;" vertex="1" parent="2">
                    <mxGeometry x="10" y="60" width="120" height="30" as="geometry"/>
                </mxCell>
                <mxCell id="6" value="Calculate" style="rounded=1;whiteSpace=wrap;html=1;fontSize=15;" vertex="1" parent="2">
                    <mxGeometry x="10" y="100" width="120" height="60" as="geometry"/>
                </mxCell>
                <mxCell id="7" value="The first 5 terms are:" style="text;html=1;strokeColor=none;fillColor=none;align=center;verticalAlign=middle;whiteSpace=wrap;rounded=0;fontSize=15;" vertex="1" parent="2">
                    <mxGeometry x="-40" y="160" width="230" height="30" as="geometry"/>
                </mxCell>
            </root>
        </mxGraphModel>
    </diagram>
</mxfile>